HIERARCHY
ROOT Hips
{
	OFFSET 0.000000 0.000000 0.000000
	CHANNELS 6 Xposition Yposition Zposition Zrotation Yrotation Xrotation 
	JOINT LHipJoint
	{
		OFFSET 0.000000 0.000000 0.000000
		CHANNELS 3 Zrotation Yrotation Xrotation
		JOINT LeftUpLeg
		{
			OFFSET 1.363060 -1.794630 0.839290
			CHANNELS 3 Zrotation Yrotation Xrotation
			JOINT LeftLeg
			{
				OFFSET 2.448110 -6.726130 0.000000
				CHANNELS 3 Zrotation Yrotation Xrotation
				JOINT LeftFoot
				{
					OFFSET 2.562200 -7.039590 0.000000
					CHANNELS 3 Zrotation Yrotation Xrotation
					JOINT LeftToeBase
					{
						OFFSET 0.157640 -0.433110 2.322550
						CHANNELS 3 Zrotation Yrotation Xrotation
						End Site
						{
							OFFSET 0.000000 0.000000 0.000000
						}
					}
				}
			}
		}
	}
	JOINT RHipJoint
	{
		OFFSET 0.000000 0.000000 0.000000
		CHANNELS 3 Zrotation Yrotation Xrotation
		JOINT RightUpLeg
		{
			OFFSET -1.305520 -1.794630 0.839290
			CHANNELS 3 Zrotation Yrotation Xrotation
			JOINT RightLeg
			{
				OFFSET -2.542530 -6.985550 0.000000
				CHANNELS 3 Zrotation Yrotation Xrotation
				JOINT RightFoot
				{
					OFFSET -2.568260 -7.056230 0.000000
					CHANNELS 3 Zrotation Yrotation Xrotation
					JOINT RightToeBase
					{
						OFFSET -0.164730 -0.452590 2.363150
						CHANNELS 3 Zrotation Yrotation Xrotation
						End Site
						{
							OFFSET 0.000000 0.000000 0.000000
						}
					}
				}
			}
		}
	}
	JOINT LowerBack
	{
		OFFSET 0.000000 0.000000 0.000000
		CHANNELS 3 Zrotation Yrotation Xrotation
		JOINT Spine
		{
			OFFSET 0.028270 2.035590 -0.193380
			CHANNELS 3 Zrotation Yrotation Xrotation
			JOINT Spine1
			{
				OFFSET 0.056720 2.048850 -0.042750
				CHANNELS 3 Zrotation Yrotation Xrotation
				JOINT Neck
				{
					OFFSET 0.000000 0.000000 0.000000
					CHANNELS 3 Zrotation Yrotation Xrotation
					JOINT Neck1
					{
						OFFSET -0.054170 1.746240 0.172020
						CHANNELS 3 Zrotation Yrotation Xrotation
						JOINT Head
						{
							OFFSET 0.104070 1.761360 -0.123970
							CHANNELS 3 Zrotation Yrotation Xrotation
							End Site
							{
								OFFSET 0.000000 0.000000 0.000000
							}
						}
					}
				}
				JOINT LeftShoulder
				{
					OFFSET 0.000000 0.000000 0.000000
					CHANNELS 3 Zrotation Yrotation Xrotation
					JOINT LeftArm
					{
						OFFSET 3.362410 1.200890 -0.311210
						CHANNELS 3 Zrotation Yrotation Xrotation
						JOINT LeftForeArm
						{
							OFFSET 4.983000 -0.000000 -0.000000
							CHANNELS 3 Zrotation Yrotation Xrotation
							JOINT LeftHand
							{
								OFFSET 3.483560 -0.000000 -0.000000
								CHANNELS 3 Zrotation Yrotation Xrotation
								JOINT LeftFingerBase
								{
									OFFSET 0.000000 0.000000 0.000000
									CHANNELS 3 Zrotation Yrotation Xrotation
									JOINT LeftHandIndex1
									{
										OFFSET 0.715260 -0.000000 -0.000000
										CHANNELS 3 Zrotation Yrotation Xrotation
										End Site
										{
											OFFSET 0.000000 0.000000 0.000000
										}
									}
								}
								JOINT LThumb
								{
									OFFSET 0.000000 0.000000 0.000000
									CHANNELS 3 Zrotation Yrotation Xrotation
									End Site
									{
										OFFSET 0.000000 0.000000 0.000000
									}
								}
							}
						}
					}
				}
				JOINT RightShoulder
				{
					OFFSET 0.000000 0.000000 0.000000
					CHANNELS 3 Zrotation Yrotation Xrotation
					JOINT RightArm
					{
						OFFSET -3.136600 1.374050 -0.404650
						CHANNELS 3 Zrotation Yrotation Xrotation
						JOINT RightForeArm
						{
							OFFSET -5.241900 -0.000000 -0.000000
							CHANNELS 3 Zrotation Yrotation Xrotation
							JOINT RightHand
							{
								OFFSET -3.444170 -0.000000 -0.000000
								CHANNELS 3 Zrotation Yrotation Xrotation
								JOINT RightFingerBase
								{
									OFFSET 0.000000 0.000000 0.000000
									CHANNELS 3 Zrotation Yrotation Xrotation
									JOINT RightHandIndex1
									{
										OFFSET -0.622530 -0.000000 -0.000000
										CHANNELS 3 Zrotation Yrotation Xrotation
										End Site
										{
											OFFSET 0.000000 0.000000 0.000000
										}
									}
								}
								JOINT RThumb
								{
									OFFSET 0.000000 0.000000 0.000000
									CHANNELS 3 Zrotation Yrotation Xrotation
									End Site
									{
										OFFSET 0.000000 0.000000 0.000000
									}
								}
							}
						}
					}
				}
			}
		}
	}
}
MOTION
Frames: 9
Frame Time: 0.008333
6.363876 17.463165 31.848166 -62.525229 -88.265378 75.522395 13.652348 0.438914 -4.727305 -27.050222 -18.129816 -5.832995 -6.631795 3.899910 5.761621 -3.798472 17.651989 13.534335 0.163300 -2.603700 -7.177300 -14.181665 1.951705 -4.739853 29.109842 26.392930 -13.622597 4.171531 -13.067981 24.305558 5.067800 -18.462342 -1.980398 -0.009200 -0.619900 1.703500 1.154973 1.362470 -13.498825 1.173293 0.640603 -4.743862 -1.353976 0.635725 5.482868 -0.380167 3.004411 -15.604313 6.358900 3.601176 12.120839 -0.396200 2.302100 11.385700 -4.920518 -7.617126 -2.312030 -79.606014 4.176471 40.786129 14.153949 -18.359681 -3.537134 -1.907019 -2.557660 -37.009186 24.121551 -0.913925 0.031100 -7.125000 0.000000 0.000000 0.497900 30.047600 -0.181700 8.188051 9.424144 -0.903564 75.133201 -2.033153 45.848370 -15.226702 17.476650 -3.216503 1.325879 1.548180 -8.374691 -14.346314 -16.667374 5.004200 7.125000 0.000000 0.000000 11.763000 -48.211600 -0.944100 
6.362868 17.463165 31.848278 -62.718628 -88.270325 75.705844 13.649011 0.443307 -4.725532 -27.059816 -18.120427 -5.816168 -6.631621 3.897984 5.761930 -3.800899 17.658033 13.535798 0.160900 -2.584500 -7.124100 -14.182623 1.948496 -4.743352 29.117600 26.357375 -13.616382 4.170101 -13.066582 24.312848 5.059708 -18.438265 -1.966910 -0.008600 -0.600400 1.650000 1.161734 1.364591 -13.499069 1.174288 0.643062 -4.741628 -1.368785 0.637688 5.494820 -0.349972 2.986771 -15.618411 6.362192 3.568937 12.123845 -0.409000 2.292400 11.392900 -4.919926 -7.611219 -2.318287 -79.701803 4.203296 40.257630 14.157849 -18.360190 -3.533848 -1.924644 -2.584403 -37.114695 24.336346 -0.837098 0.074000 -7.125000 0.000000 0.000000 0.693100 30.140000 -0.251400 8.189302 9.422708 -0.903110 75.146181 -2.022623 45.844020 -15.232320 17.481189 -3.218766 1.325450 1.550801 -8.362659 -14.334249 -16.692437 5.007600 7.125000 0.000000 0.000000 11.783700 -48.237900 -0.953600 
6.362756 17.462381 31.848390 -62.846027 -88.282683 75.830230 13.652176 0.441321 -4.725963 -27.077311 -18.119426 -5.830980 -6.630178 3.916357 5.800039 -3.808867 17.664101 13.489018 0.160800 -2.584000 -7.122600 -14.181752 1.947656 -4.745161 29.113239 26.343180 -13.614381 4.169953 -13.063524 24.307710 5.066273 -18.456024 -1.956608 -0.007700 -0.566000 1.555300 1.177918 1.370958 -13.503321 1.165467 0.657619 -4.738962 -1.426832 0.642274 5.508246 -0.324032 2.957458 -15.629898 6.389667 3.519592 12.121280 -0.400800 2.276400 11.393000 -4.930545 -7.610982 -2.320615 -79.758440 4.207916 39.701363 14.147583 -18.336381 -3.522379 -1.924719 -2.602329 -37.170269 24.383668 -0.739330 0.130400 -7.125000 0.000000 0.000000 0.740700 30.261700 -0.266500 8.182635 9.423935 -0.906688 75.213136 -1.991736 45.726917 -15.211091 17.456407 -3.210045 1.327111 1.545874 -8.264429 -14.327704 -16.675944 5.000000 7.125000 0.000000 0.000000 11.785100 -48.217900 -0.947800 
6.359172 17.462157 31.841558 -66.451021 -88.365946 79.397393 13.599053 0.472389 -4.709710 -27.063373 -18.015097 -5.814267 -6.625816 3.926499 5.844699 -3.808667 17.629905 13.427661 0.155400 -2.539700 -6.999800 -14.250436 1.966416 -4.759579 29.207832 26.477075 -13.496012 4.168643 -13.051534 24.305764 5.073856 -18.476170 -2.010750 -0.009400 -0.627300 1.723900 1.078164 1.372503 -13.512250 1.171142 0.682962 -4.731563 -1.336581 0.665216 5.548685 -0.435924 2.942437 -15.667872 6.443755 3.536158 12.149785 -0.340200 2.278900 11.414200 -4.937831 -7.584887 -2.331865 -79.837539 4.229102 39.261270 14.138436 -18.326598 -3.515386 -1.906239 -2.613479 -37.353938 24.273937 -0.699670 0.155000 -7.125000 0.000000 0.000000 0.650300 30.316300 -0.233100 8.180887 9.432625 -0.901014 75.188374 -1.982386 45.771436 -15.224906 17.467211 -3.213790 1.324577 1.544122 -8.302671 -14.342232 -16.640334 4.994000 7.125000 0.000000 0.000000 11.761100 -48.181900 -0.935300 
6.357268 17.461709 31.838310 -68.364088 -88.412057 81.287469 13.572451 0.485568 -4.702400 -27.067609 -17.961174 -5.807170 -6.623137 3.938134 5.882033 -3.813105 17.616852 13.372844 0.151100 -2.504600 -6.902500 -14.285753 1.972505 -4.766667 29.253386 26.531716 -13.436143 4.167116 -13.045336 24.306868 5.078706 -18.488549 -2.030961 -0.009700 -0.637400 1.751500 1.033069 1.374163 -13.516473 1.169647 0.701299 -4.727049 -1.315118 0.677627 5.576779 -0.500157 2.921590 -15.707431 6.491941 3.529405 12.174754 -0.292700 2.274900 11.437400 -4.947344 -7.570196 -2.340193 -79.894475 4.245342 38.807800 14.131401 -18.314726 -3.508029 -1.898837 -2.625702 -37.504027 24.251414 -0.664908 0.175700 -7.125000 0.000000 0.000000 0.635800 30.361700 -0.227300 8.174150 9.438323 -0.900813 75.203435 -1.967953 45.754674 -15.226575 17.467371 -3.213508 1.323227 1.542260 -8.287586 -14.338567 -16.620706 4.986700 7.125000 0.000000 0.000000 11.759600 -48.160400 -0.928800 
6.355588 17.461149 31.835509 -70.112397 -88.456395 83.013647 13.548034 0.496661 -4.696230 -27.076863 -17.911249 -5.796311 -6.621078 3.946142 5.910923 -3.817194 17.604761 13.319874 0.146000 -2.462200 -6.784800 -14.317439 1.976125 -4.772465 29.290193 26.575976 -13.382484 4.165462 -13.039525 24.308230 5.082200 -18.496560 -2.045327 -0.009900 -0.643100 1.767200 0.989874 1.373363 -13.519234 1.167699 0.716742 -4.723161 -1.295930 0.687683 5.602766 -0.573663 2.901942 -15.748679 6.541902 3.527006 12.200902 -0.239600 2.272000 11.461900 -4.957852 -7.556305 -2.348313 -79.941090 4.262076 38.392374 14.123146 -18.301442 -3.500554 -1.888838 -2.633956 -37.669200 24.196509 -0.654420 0.182500 -7.125000 0.000000 0.000000 0.592300 30.377100 -0.211500 8.165817 9.443564 -0.901111 75.216187 -1.956657 45.745804 -15.230718 17.471243 -3.214521 1.321875 1.541049 -8.282997 -14.336267 -16.604961 4.981000 7.125000 0.000000 0.000000 11.757900 -48.143300 -0.923700 
6.354244 17.460701 31.833829 -71.381598 -88.491700 84.264306 13.530182 0.505110 -4.691729 -27.091114 -17.873189 -5.779607 -6.620346 3.946614 5.921400 -3.820106 17.597580 13.285398 0.142200 -2.430500 -6.697000 -14.339764 1.977085 -4.776736 29.311302 26.595987 -13.348532 4.163022 -13.037469 24.316357 5.079912 -18.488244 -2.052255 -0.010100 -0.647400 1.779000 0.959924 1.369214 -13.520069 1.166481 0.723739 -4.720505 -1.283157 0.692688 5.622711 -0.642404 2.884512 -15.784242 6.585535 3.525882 12.224031 -0.191100 2.269100 11.483700 -4.967443 -7.544641 -2.355673 -79.981374 4.282484 38.023445 14.115636 -18.289383 -3.493907 -1.879640 -2.639744 -37.852396 24.140272 -0.669864 0.174200 -7.125000 0.000000 0.000000 0.547100 30.359800 -0.195600 8.157771 9.447209 -0.901657 75.224054 -1.947601 45.741938 -15.234686 17.475767 -3.215719 1.321033 1.540542 -8.280694 -14.335015 -16.597557 4.978200 7.125000 0.000000 0.000000 11.757600 -48.135300 -0.921300 
6.353459 17.460253 31.833269 -72.077875 -88.514914 84.947904 13.521093 0.509905 -4.689035 -27.107295 -17.851483 -5.766127 -6.620311 3.945621 5.924558 -3.822348 17.594792 13.262517 0.138900 -2.402100 -6.618400 -14.350439 1.976114 -4.779629 29.316675 26.590711 -13.334836 4.160723 -13.037515 24.325851 5.074473 -18.471153 -2.047985 -0.009900 -0.642900 1.766800 0.949110 1.364610 -13.520683 1.164575 0.725430 -4.719033 -1.286376 0.693795 5.635814 -0.688944 2.867081 -15.809489 6.618441 3.517147 12.239612 -0.155400 2.263900 11.498600 -4.975720 -7.536250 -2.361111 -80.006955 4.306101 37.708072 14.108499 -18.278250 -3.487779 -1.869636 -2.644051 -38.046610 24.074486 -0.696043 0.159700 -7.125000 0.000000 0.000000 0.493300 30.329200 -0.176700 8.150396 9.448475 -0.903063 75.236243 -1.939994 45.726684 -15.236166 17.478478 -3.216405 1.320672 1.540675 -8.271680 -14.330462 -16.599479 4.977200 7.125000 0.000000 0.000000 11.763100 -48.137000 -0.922300 
6.353347 17.459917 31.834277 -72.154173 -88.523460 85.018115 13.521363 0.510528 -4.687836 -27.123563 -17.849027 -5.760641 -6.620799 3.946170 5.926789 -3.823120 17.593638 13.250952 0.136400 -2.380800 -6.559200 -14.348499 1.973310 -4.781673 29.306118 26.553994 -13.343801 4.159327 -13.038982 24.335164 5.061904 -18.434433 -2.031351 -0.009800 -0.639600 1.757600 0.962782 1.359784 -13.521192 1.163038 0.719725 -4.718959 -1.305350 0.690294 5.641163 -0.714893 2.851327 -15.822664 6.640135 3.503256 12.247953 -0.132500 2.257100 11.506300 -4.982587 -7.531140 -2.364919 -80.025893 4.333166 37.436444 14.100867 -18.266167 -3.481745 -1.859601 -2.647078 -38.233917 24.004408 -0.726562 0.142900 -7.125000 0.000000 0.000000 0.435400 30.293000 -0.156300 8.144150 9.447364 -0.904820 75.247585 -1.933879 45.711312 -15.236253 17.480607 -3.216960 1.321259 1.541251 -8.265435 -14.331650 -16.609125 4.980500 7.125000 0.000000 0.000000 11.764800 -48.147600 -0.925500 
